HIERARCHY
ROOT Hips
{
  OFFSET 0.000000 0.000000 0.000000
  CHANNELS 6 Xposition Yposition Zposition Xrotation Yrotation Zrotation
  JOINT Spine
  {
    OFFSET -6.423313 -17.000212 -13.334487
    CHANNELS 3 Xrotation Yrotation Zrotation
    JOINT Chest
    {
      OFFSET -6.423313 -17.000212 -13.334487
      CHANNELS 3 Xrotation Yrotation Zrotation
      JOINT Neck
      {
        OFFSET -8.565987 -10.465851 -10.311200
        CHANNELS 3 Xrotation Yrotation Zrotation
        JOINT Head
        {
          OFFSET -6.506337 7.210322 5.531532
          CHANNELS 3 Xrotation Yrotation Zrotation
          End Site
          {
            OFFSET 0.0 5.0 2.0
          }
        }
      }
      JOINT LeftShoulder
      {
        OFFSET 16.191032 -0.222631 -5.090955
        CHANNELS 3 Xrotation Yrotation Zrotation
        JOINT LeftArm
        {
          OFFSET 10.448869 20.915173 -1.238295
          CHANNELS 3 Xrotation Yrotation Zrotation
          JOINT LeftForeArm
          {
            OFFSET 6.900823 23.754111 -0.858906
            CHANNELS 3 Xrotation Yrotation Zrotation
            JOINT LeftHand
            {
              OFFSET -8.000000 0.000000 3.000000
              CHANNELS 3 Xrotation Yrotation Zrotation
              End Site
              {
                OFFSET -3.0 0.0 2.0
              }
            }
          }
        }
      }
      JOINT RightShoulder
      {
        OFFSET -16.191032 0.222631 5.090955
        CHANNELS 3 Xrotation Yrotation Zrotation
        JOINT RightArm
        {
          OFFSET -13.712075 14.695798 8.321647
          CHANNELS 3 Xrotation Yrotation Zrotation
          JOINT RightForeArm
          {
            OFFSET -17.210048 12.326384 -1.738171
            CHANNELS 3 Xrotation Yrotation Zrotation
            JOINT RightHand
            {
              OFFSET 8.000000 0.000000 3.000000
              CHANNELS 3 Xrotation Yrotation Zrotation
              End Site
              {
                OFFSET 3.0 0.0 2.0
              }
            }
          }
        }
      }
    }
  }
  JOINT LeftUpLeg
  {
    OFFSET 12.282434 -0.310965 -0.080493
    CHANNELS 3 Xrotation Yrotation Zrotation
    JOINT LeftLeg
    {
      OFFSET 9.663075 41.630832 -4.887251
      CHANNELS 3 Xrotation Yrotation Zrotation
      JOINT LeftFoot
      {
        OFFSET 0.000000 -8.000000 5.000000
        CHANNELS 3 Xrotation Yrotation Zrotation
        JOINT LeftToeBase
        {
          OFFSET 0.000000 -1.000000 8.000000
          CHANNELS 3 Xrotation Yrotation Zrotation
          End Site
          {
            OFFSET 0.0 -1.0 3.0
          }
        }
      }
    }
  }
  JOINT RightUpLeg
  {
    OFFSET -12.282434 0.310965 0.080493
    CHANNELS 3 Xrotation Yrotation Zrotation
    JOINT RightLeg
    {
      OFFSET -1.472860 28.795469 -20.184857
      CHANNELS 3 Xrotation Yrotation Zrotation
      JOINT RightFoot
      {
        OFFSET 0.000000 -8.000000 5.000000
        CHANNELS 3 Xrotation Yrotation Zrotation
        JOINT RightToeBase
        {
          OFFSET 0.000000 -1.000000 8.000000
          CHANNELS 3 Xrotation Yrotation Zrotation
          End Site
          {
            OFFSET 0.0 -1.0 3.0
          }
        }
      }
    }
  }
}
MOTION
Frames: 16
Frame Time: 0.033333
0.000000 0.000000 0.000000 0.000000 0.000000 0.000000 0.000000 0.000000 0.000000 0.000000 0.000000 0.000000 -41.146643 -30.699525 11.765193 0.000000 0.000000 0.000000 0.000000 0.000000 0.000000 0.000000 0.000000 0.000000 -0.949788 -40.474450 -96.870109 0.000000 0.000000 0.000000 0.000000 0.000000 0.000000 0.000000 0.000000 0.000000 3.695233 42.637408 122.013800 0.000000 0.000000 0.000000 0.000000 0.000000 0.000000 -96.117806 -14.152697 -2.491422 -60.000000 12.563962 -6.346694 0.000000 0.000000 0.000000 0.000000 0.000000 0.000000 -142.836756 0.382890 -0.091385 -44.162700 -14.963501 4.018465 0.000000 0.000000 0.000000
0.198669 0.199667 1.000000 -0.003433 -0.140292 0.022401 4.489454 -1.878862 0.149568 0.024546 -4.876387 0.335878 -57.552224 -37.538031 16.151260 0.000000 0.000000 0.000000 5.193766 -2.586972 0.831258 0.462539 -0.132287 0.065018 -0.746007 -40.610733 -96.751441 0.000000 0.000000 0.000000 3.029904 0.638422 3.676368 -2.508656 -3.918670 -1.922046 15.840534 46.880922 126.613397 0.000000 0.000000 0.000000 2.576789 -0.461881 1.437690 -90.169155 -14.396637 -3.316471 -60.000000 14.063885 -7.012068 0.000000 0.000000 0.000000 5.283462 -1.636014 -2.988317 -144.058958 -9.095980 2.278249 -39.727909 -15.724267 3.576167 0.000000 0.000000 0.000000
0.389418 0.397339 2.000000 0.000505 0.114573 -0.317147 2.512112 -1.861127 1.083081 -0.753641 -3.673909 -2.463650 -57.517704 -37.393946 18.693000 0.000000 0.000000 0.000000 6.378388 -3.132052 -4.584920 -2.531385 0.946714 3.468962 5.063259 -44.923969 -88.371424 0.000000 0.000000 0.000000 -1.087222 -4.096333 5.928217 -15.259388 -18.399710 6.425162 91.601425 50.041362 167.655246 0.000000 0.000000 0.000000 3.144230 -0.567468 1.809531 -91.785152 -13.021968 -2.803675 -60.000000 17.290696 -8.251232 0.000000 0.000000 0.000000 5.134824 -2.311646 -4.026924 -143.883348 -13.513061 3.370595 -38.141528 -19.619313 4.189972 0.000000 0.000000 0.000000
0.564642 0.591040 3.000000 -0.013462 0.691131 -2.460391 -3.304620 -0.566433 2.413460 -1.691615 -3.993697 -5.787759 -65.948239 -40.017135 21.574659 0.000000 0.000000 0.000000 -5.553356 1.951996 -7.132251 -31.305675 11.308171 5.507540 15.157526 -53.328189 -80.680912 0.000000 0.000000 0.000000 -8.516403 -11.082992 9.016075 -22.946461 -25.121248 11.671599 108.703099 50.996492 169.824181 0.000000 0.000000 0.000000 1.831727 -0.163085 2.589759 -97.031104 -12.063378 -2.021450 -59.169571 21.623169 -9.027731 0.000000 0.000000 0.000000 8.426565 -1.998511 -4.031649 -139.321754 -8.780074 1.816278 -42.897800 -21.843805 5.641607 0.000000 0.000000 0.000000
0.717356 0.778837 4.000000 -0.040123 0.908956 -4.359224 -6.475012 0.222382 3.048298 -1.793160 -5.192067 -6.302514 -89.060970 -45.919454 27.099955 0.000000 0.000000 0.000000 -15.629162 5.443362 -11.108044 -45.978511 19.401931 10.100793 14.360296 -57.251140 -60.793629 0.000000 0.000000 0.000000 -15.113599 -17.380293 15.865261 -26.012108 -27.967991 12.933097 100.631445 52.281792 166.570071 0.000000 0.000000 0.000000 -0.556129 0.483146 2.870430 -102.056694 -10.132896 -1.241297 -58.338183 21.362471 -8.734784 0.000000 0.000000 0.000000 11.340802 -1.390885 -3.435344 -127.241963 8.181746 -0.807388 -50.787281 -20.751803 6.917863 0.000000 0.000000 0.000000
0.841471 0.958851 5.000000 -0.066509 1.264969 -5.601403 -18.720870 4.417837 3.545450 -2.502409 -8.358569 -9.643570 -113.368821 -48.178666 38.469233 0.000000 0.000000 0.000000 -25.007565 8.489426 -13.464618 -63.015671 29.238423 12.122692 8.549644 -59.815489 -32.642665 0.000000 0.000000 0.000000 -15.818723 -19.025312 21.368100 -32.384045 -31.797723 18.126198 134.555742 52.422004 173.105092 0.000000 0.000000 0.000000 -0.479647 0.560215 3.654465 -107.646077 -6.492617 -0.474055 -55.824933 25.836945 -9.952612 0.000000 0.000000 0.000000 11.912013 -0.016218 -1.054011 -122.782020 16.665429 -0.996064 -52.820431 -18.399564 6.487066 0.000000 0.000000 0.000000
0.932039 1.129285 6.000000 -0.119332 2.177352 -6.826084 -23.661253 6.675078 2.330713 -2.790390 -8.410119 -10.819277 -118.556930 -46.988724 43.561504 0.000000 0.000000 0.000000 -32.711260 9.282592 -19.293704 -76.776360 31.324450 5.309238 8.654598 -64.184810 -25.857288 0.000000 0.000000 0.000000 -24.149060 -23.539996 24.304300 -32.742990 -30.117518 21.281518 131.191693 47.762279 175.778564 0.000000 0.000000 0.000000 -0.561462 0.948243 6.573240 -112.497460 0.355010 0.010821 -54.698361 29.122678 -10.932832 0.000000 0.000000 0.000000 11.855132 0.457827 -0.196670 -121.562135 23.333793 -1.151604 -53.805048 -21.553393 7.830636 0.000000 0.000000 0.000000
0.985450 1.288435 7.000000 -0.219370 4.963719 -6.916175 -23.984766 6.880123 2.113452 -2.856661 -4.650431 -10.054438 -111.492641 -49.649483 33.938826 0.000000 0.000000 0.000000 -34.037968 6.666657 -27.286919 -88.349126 38.105822 5.267261 0.917447 -52.404938 -6.381623 0.000000 0.000000 0.000000 -8.776086 -15.185556 20.944509 -24.889087 -22.407812 20.636607 117.489154 45.445524 176.389339 0.000000 0.000000 0.000000 5.734452 -0.743689 8.858388 -114.235962 7.283482 0.111598 -52.104800 27.460460 -9.578601 0.000000 0.000000 0.000000 15.275247 0.680247 -0.073736 -123.894724 26.252470 -1.846252 -52.776722 -22.791402 8.058477 0.000000 0.000000 0.000000
0.999574 1.434712 8.000000 -0.551353 11.850256 -7.726146 -23.893160 7.315024 1.130482 -2.747392 -3.329322 -9.370815 -118.478961 -48.510938 40.341559 0.000000 0.000000 0.000000 -33.993943 4.407851 -33.313437 -84.603474 37.457705 6.959964 1.988892 -58.702705 -8.363039 0.000000 0.000000 0.000000 -14.412802 -19.381838 26.102596 -26.265283 -21.745257 24.583350 133.718952 39.274108 -178.971756 0.000000 0.000000 0.000000 7.794881 -1.177878 13.266808 -99.616019 18.933772 2.748415 -60.000000 24.255220 -13.091793 0.000000 0.000000 0.000000 16.121259 1.152443 0.781647 -123.801254 28.088065 -1.956976 -58.949465 -22.739687 9.452472 0.000000 0.000000 0.000000
0.973848 1.566654 9.000000 -1.172644 20.339160 -9.106868 -28.655462 9.360326 -0.405674 -4.016552 3.644150 -11.840235 -115.857919 -47.791750 40.612274 0.000000 0.000000 0.000000 -35.408076 3.560083 -36.258661 -70.260521 11.204750 -16.122134 74.682588 -62.618823 -136.789068 0.000000 0.000000 0.000000 -12.049032 -18.121284 25.480819 -23.279090 -19.043356 24.227678 99.238555 39.477717 -178.177787 0.000000 0.000000 0.000000 10.625747 -2.087759 17.834530 -80.160621 30.980348 10.238941 -60.000000 18.788774 -14.803896 0.000000 0.000000 0.000000 12.072882 2.769712 3.964461 -125.592564 35.524332 -3.082777 -57.623584 -22.669135 9.115282 0.000000 0.000000 0.000000
0.909297 1.682942 10.000000 -1.455243 22.222008 -9.978314 -27.244737 8.962651 -0.381674 -3.650567 2.675792 -10.979905 -118.980397 -44.949577 47.914273 0.000000 0.000000 0.000000 -22.063201 1.955456 -34.085834 -46.149432 0.642538 -28.604483 65.282748 -57.418339 -142.517293 0.000000 0.000000 0.000000 -19.154940 -21.325762 24.827491 -25.971428 -22.362842 22.825614 108.343784 43.063578 178.101764 0.000000 0.000000 0.000000 10.555585 -2.013307 19.934598 -75.693204 34.567909 13.025776 -60.000000 17.340806 -13.207702 0.000000 0.000000 0.000000 10.491063 4.504436 7.005435 -124.046927 42.062625 -3.102470 -60.000000 -23.672936 11.485907 0.000000 0.000000 0.000000
0.808496 1.782415 11.000000 -1.430817 22.240486 -9.852520 -25.531257 8.364649 -0.111566 -3.486665 -0.605465 -11.215437 -118.870384 -45.447677 46.861131 0.000000 0.000000 0.000000 -15.184884 1.308443 -31.158790 -22.370320 -0.212770 -28.510775 22.587471 -48.447494 -131.423603 0.000000 0.000000 0.000000 -16.326947 -19.803334 23.847009 -24.134556 -22.054249 19.814243 91.236813 47.023005 171.965942 0.000000 0.000000 0.000000 9.608912 -1.624488 19.603569 -80.875322 33.669938 10.937105 -60.000000 18.573921 -14.448765 0.000000 0.000000 0.000000 10.403637 6.091131 9.778933 -118.121403 44.688910 -0.876484 -60.000000 -23.119868 11.900126 0.000000 0.000000 0.000000
0.675463 1.864078 12.000000 -1.309428 22.393811 -9.212974 -18.328335 5.161085 1.925008 -1.960575 -0.377227 -6.277177 -112.279469 -47.386645 39.722784 0.000000 0.000000 0.000000 -4.670384 0.217751 -20.747414 -21.167690 -0.026081 -27.477958 18.736457 -47.219513 -131.530596 0.000000 0.000000 0.000000 -13.741591 -15.526925 11.901705 -21.264436 -23.025468 11.883548 87.076255 53.074961 161.698740 0.000000 0.000000 0.000000 -6.614795 4.844066 17.574124 -96.779435 43.764130 7.776440 -60.000000 -2.754774 1.178075 0.000000 0.000000 0.000000 13.977814 7.672411 13.204293 -112.015477 47.049616 1.730447 -60.000000 -23.672026 12.988353 0.000000 0.000000 0.000000
0.515501 1.927116 13.000000 -0.978452 21.683185 -7.748207 -13.493093 3.271426 2.358849 -1.073593 -3.153626 -3.558998 -118.759149 -45.352984 47.013660 0.000000 0.000000 0.000000 -0.820625 -0.490295 -13.944074 -19.816606 1.132716 -21.680744 18.696119 -47.876005 -126.652131 0.000000 0.000000 0.000000 -10.959083 -10.086808 1.045107 -18.748150 -23.475893 5.290640 84.405615 55.762701 156.068770 0.000000 0.000000 0.000000 -17.799918 9.428415 17.302746 -112.760262 45.434467 1.352145 -54.263255 -8.316822 3.032782 0.000000 0.000000 0.000000 9.094439 10.555049 17.233330 -106.081419 49.628618 4.590050 -59.702732 -20.154524 8.514147 0.000000 0.000000 0.000000
0.334988 1.970899 14.000000 -0.765364 21.116267 -6.772424 -10.469631 1.059645 4.105605 -0.830230 -4.932806 -2.768532 -117.894630 -45.718590 45.933500 0.000000 0.000000 0.000000 1.037104 -0.801071 -6.067286 -17.783087 1.356348 -19.495895 18.905867 -48.403572 -123.454336 0.000000 0.000000 0.000000 -12.007089 -7.915135 -7.164343 -14.774525 -22.065794 -2.193460 60.506385 57.262080 139.544287 0.000000 0.000000 0.000000 -25.104758 12.090134 16.063224 -124.973772 46.341375 -3.851786 -52.073863 -11.066379 3.801875 0.000000 0.000000 0.000000 9.604556 12.640180 20.942774 -100.486433 58.594707 8.735327 -60.000000 -23.590413 11.705549 0.000000 0.000000 0.000000
0.141120 1.994990 15.000000 -0.516217 20.772163 -5.522649 -7.653999 -1.469317 6.144769 -0.449059 -6.396790 -1.365998 -112.168774 -49.480930 34.755120 0.000000 0.000000 0.000000 4.221847 -2.070185 2.641438 -17.606199 2.181472 -15.103268 12.343386 -45.660580 -126.416160 0.000000 0.000000 0.000000 -12.637671 -5.574906 -14.337407 -10.916709 -20.822265 -11.084102 37.300981 55.191756 122.883093 0.000000 0.000000 0.000000 -28.175021 13.548690 16.396409 -135.021203 45.245652 -7.991898 -53.477753 -13.734901 4.915080 0.000000 0.000000 0.000000 7.141601 14.132165 22.574507 -103.451987 57.559586 6.905890 -60.000000 -30.000000 13.897167 0.000000 0.000000 0.000000
